<?xml version="1.0" standalone="no"?>
<!DOCTYPE svg PUBLIC "-//W3C//DTD SVG 20010904//EN"
 "http://www.w3.org/TR/2001/REC-SVG-20010904/DTD/svg10.dtd">
<svg version="1.0" xmlns="http://www.w3.org/2000/svg"
 width="360.000000pt" height="360.000000pt" viewBox="0 0 360.000000 360.000000"
 preserveAspectRatio="xMidYMid meet">

<g transform="translate(0.000000,360.000000) scale(0.100000,-0.100000)"
fill="#000000" stroke="none">
<path d="M1587 3056 c-3 -7 -21 -23 -41 -34 -35 -21 -36 -21 -26 -2 6 11 21
20 33 21 12 0 16 3 9 6 -7 3 -27 0 -45 -6 -20 -7 -33 -8 -35 -2 -9 26 -91 -41
-122 -99 -20 -39 -64 -81 -107 -104 -31 -16 -94 -80 -113 -116 -6 -11 -10 -31
-8 -43 2 -13 -2 -21 -9 -19 -7 1 -13 -3 -13 -10 0 -6 -11 -34 -24 -62 -13 -28
-27 -69 -30 -91 -5 -29 -4 -34 3 -20 9 19 10 19 10 -2 1 -13 -3 -23 -9 -23
-15 0 -12 -36 5 -50 8 -6 19 -9 26 -5 18 11 60 -16 54 -35 -3 -9 0 -41 6 -71
26 -127 27 -138 9 -144 -16 -5 -26 -55 -11 -55 12 0 41 -57 41 -81 0 -21 -1
-22 -20 -4 -19 18 -20 17 -20 -3 0 -11 5 -24 10 -27 6 -3 10 -15 10 -26 0 -30
20 -22 21 9 0 22 3 18 15 -19 7 -26 20 -51 26 -56 29 -21 123 -53 162 -54 22
-1 51 -4 64 -7 l22 -7 -25 -27 c-14 -15 -25 -30 -25 -33 0 -3 -20 -27 -45 -53
-48 -50 -54 -73 -33 -132 9 -26 9 -35 0 -38 -7 -2 -12 -11 -13 -20 0 -12 -3
-10 -10 6 -7 18 -14 22 -30 17 -14 -5 -25 -2 -30 6 -6 9 -8 4 -5 -15 8 -43
-11 -20 -34 43 -10 29 -22 85 -26 124 -9 100 -24 129 -20 42 5 -100 22 -194
46 -242 11 -23 20 -46 20 -50 0 -4 18 -31 39 -60 51 -66 63 -90 52 -98 -5 -3
-12 -18 -16 -34 -12 -54 -63 -96 -150 -124 -44 -15 -102 -35 -130 -46 -55 -22
-217 -61 -252 -61 l-23 0 0 -510 0 -510 1030 0 1030 0 -2 422 -3 423 -42 3
-42 3 4 -35 c5 -37 -9 -50 -19 -18 -5 14 -14 17 -40 14 -25 -3 -33 -8 -29 -18
4 -10 -3 -14 -21 -14 -18 0 -24 -4 -20 -15 7 -18 -18 -20 -47 -5 -24 13 -49
61 -49 95 0 29 -43 119 -74 153 -25 29 -107 72 -136 72 -11 0 -20 4 -20 9 0 9
-36 22 -43 15 -2 -2 20 -28 48 -57 42 -42 57 -66 75 -122 12 -38 37 -94 56
-122 41 -63 43 -77 10 -62 -16 8 -22 17 -19 30 5 18 -55 94 -66 84 -2 -3 -17
9 -33 27 -15 17 -28 28 -28 24 0 -5 -7 -3 -15 4 -11 9 -19 9 -36 -3 -23 -17
-47 -13 -66 11 -11 14 -13 13 -13 -5 0 -11 9 -28 20 -38 26 -24 26 -55 1 -55
-11 0 -23 5 -27 12 -5 8 -2 9 9 5 14 -5 15 -3 4 21 -6 15 -16 30 -21 33 -5 4
-6 19 -2 34 6 23 4 26 -9 21 -14 -5 -16 1 -15 32 1 20 1 69 0 107 -2 67 -3 68
-11 30 -17 -74 -28 -130 -41 -200 -9 -51 -13 -62 -16 -40 -2 17 -11 36 -20 43
-15 11 -14 12 1 12 18 0 23 15 9 24 -5 3 -9 19 -10 37 0 23 4 33 19 36 10 3
19 10 19 15 0 5 -6 6 -12 2 -10 -6 -10 -5 -1 7 7 8 10 25 6 37 -3 15 -1 22 8
22 8 0 15 10 15 23 1 12 3 41 6 65 2 23 1 42 -4 42 -4 0 -8 -11 -8 -25 0 -34
-25 -82 -63 -122 -40 -43 -57 -42 -57 1 0 38 9 51 118 164 78 81 148 190 139
215 -3 7 -8 0 -12 -15 -4 -15 -13 -29 -22 -32 -8 -3 -12 -10 -8 -15 3 -6 -6
-8 -21 -5 -20 4 -27 0 -31 -16 -4 -17 -8 -18 -14 -8 -7 10 -9 10 -9 -3 0 -26
-24 -51 -42 -44 -17 7 -13 16 30 61 12 12 19 43 26 109 2 17 8 43 14 58 24 57
16 75 -38 98 -50 22 -90 63 -90 93 0 9 -4 16 -8 16 -8 0 -32 43 -32 55 0 3 36
5 79 5 44 0 83 5 86 10 3 6 16 10 28 10 12 0 36 9 53 19 34 21 48 53 59 135 4
33 14 56 31 71 13 12 24 29 24 38 0 18 -87 54 -172 70 -50 9 -56 13 -47 28 12
23 12 32 -2 24 -5 -4 -18 0 -27 8 -9 9 -47 21 -84 27 -57 10 -70 10 -89 -3
-16 -12 -27 -13 -44 -5 -17 8 -28 6 -46 -5 -43 -28 -94 -31 -141 -10 -43 20
-55 20 -260 15 l-86 -2 -46 -45 c-62 -59 -75 -59 -65 3 14 88 38 172 60 213
14 28 21 34 116 99 l72 50 103 -15 c57 -9 135 -15 173 -14 39 1 113 2 167 3
53 0 91 4 85 8 -8 5 -8 8 -1 8 5 0 19 -7 30 -15 10 -8 30 -15 42 -15 34 0 92
-30 92 -47 0 -8 4 -12 8 -9 11 7 2 76 -10 76 -6 0 -7 7 -4 16 4 11 -1 18 -14
21 -11 3 -20 13 -20 22 -1 14 -14 55 -50 149 -6 17 -16 32 -22 32 -6 0 -7 7
-4 16 5 14 4 15 -7 5 -12 -9 -17 -5 -27 18 -13 31 -35 33 -43 3 -3 -10 -5 -1
-6 18 0 23 2 30 8 21 5 -8 11 -9 15 -3 9 15 -52 62 -82 63 -23 0 -24 2 -8 8
16 6 7 14 -50 45 -57 32 -75 37 -111 33 -43 -5 -43 -5 -22 14 l22 19 -39 1
c-21 0 -51 2 -66 4 -15 2 -29 -2 -31 -9z m-152 -66 c-16 -16 -31 -27 -34 -24
-5 4 48 53 58 54 3 0 -8 -13 -24 -30z m-305 -520 c0 -5 -2 -10 -4 -10 -3 0 -8
5 -11 10 -3 6 -1 10 4 10 6 0 11 -4 11 -10z m1057 -313 c69 -18 77 -38 64
-144 -18 -139 -46 -160 -201 -150 -149 10 -200 41 -200 123 l0 45 30 -21 c38
-27 113 -36 170 -19 32 9 39 14 25 17 -11 2 -26 9 -33 15 -11 9 -9 13 10 20
12 5 39 13 58 16 l35 7 -55 18 c-30 10 -59 22 -65 27 -14 14 55 -1 90 -19 27
-14 29 -14 17 1 -19 22 -75 47 -108 47 -15 0 -24 3 -21 7 4 3 -1 12 -11 20
-15 13 -6 14 67 8 46 -3 104 -11 128 -18z m-923 -25 c-6 -4 -14 -16 -18 -27
-6 -13 -10 -16 -13 -7 -8 20 5 42 24 42 11 0 14 -3 7 -8z m526 -37 c0 -9 -6
-12 -15 -9 -8 4 -12 10 -9 15 8 14 24 10 24 -6z m-18 -42 c14 -16 38 -61 52
-100 21 -56 37 -80 67 -104 41 -32 51 -65 23 -76 -9 -3 -39 -1 -67 6 -34 8
-54 8 -61 1 -5 -5 -18 -10 -28 -10 -10 0 -27 -5 -38 -12 -16 -10 -23 -9 -41 7
-16 15 -36 20 -77 20 -47 0 -57 3 -60 18 -4 21 34 67 54 67 7 0 31 39 54 87
61 131 77 143 122 96z m-509 -24 c12 -7 25 -16 28 -21 12 -18 296 -33 316 -17
8 7 9 1 3 -24 -11 -49 -16 -55 -68 -80 -38 -18 -64 -22 -137 -22 -135 1 -170
25 -182 125 -6 54 0 60 40 39z m282 -308 c3 -5 2 -12 -3 -15 -5 -3 -9 1 -9 9
0 17 3 19 12 6z m180 -151 c6 -5 17 -5 24 -1 16 10 51 2 51 -11 0 -6 7 -5 15
2 21 17 38 1 33 -31 -2 -16 -10 -24 -23 -24 -11 0 -30 -11 -42 -25 -13 -14
-23 -20 -23 -15 0 6 -5 2 -11 -7 -12 -22 -29 -23 -29 -3 0 13 19 20 43 16 5
-1 6 3 2 9 -3 5 -28 10 -56 10 -28 0 -49 5 -49 11 0 5 -10 9 -22 7 -13 -2 -22
2 -21 8 1 7 -6 10 -17 7 -21 -6 -36 17 -27 40 5 14 136 20 152 7z m161 -46
c-5 -13 -10 -14 -18 -6 -6 6 -8 18 -4 28 5 13 10 14 18 6 6 -6 8 -18 4 -28z
m67 -56 c56 -39 61 -48 63 -112 2 -48 -2 -67 -19 -91 -27 -37 -66 -75 -81 -76
-21 -2 -50 3 -75 14 -14 6 -57 12 -94 12 -45 0 -71 5 -76 14 -6 9 -11 10 -15
3 -4 -6 -33 -10 -66 -9 -48 1 -61 5 -66 19 -3 10 -13 18 -21 18 -9 0 -13 3
-10 6 3 4 2 15 -4 26 -7 14 -7 23 2 34 10 12 6 21 -19 47 -32 33 -43 77 -20
77 6 0 19 7 29 16 17 15 21 15 56 -7 21 -12 48 -31 61 -42 20 -19 21 -22 7
-43 -13 -21 -13 -24 1 -32 9 -5 15 -13 15 -18 -2 -12 27 -15 128 -15 47 1 89
5 94 10 5 5 10 31 11 59 2 39 -1 53 -13 58 -9 4 -20 6 -24 5 -5 -1 -6 3 -3 8
4 5 0 12 -6 15 -7 4 -3 4 9 2 12 -2 22 -1 21 3 -2 17 5 21 43 21 26 0 52 -8
72 -22z m-581 -217 c-5 -3 -12 -13 -15 -21 -3 -8 -6 0 -6 19 -1 29 1 32 14 21
9 -7 12 -16 7 -19z m832 -457 c9 -3 13 -10 10 -15 -3 -5 0 -9 7 -9 7 0 10 -3
7 -6 -7 -7 -48 18 -48 28 0 10 4 10 24 2z"/>
<path d="M1820 3020 c8 -5 20 -10 25 -10 6 0 3 5 -5 10 -8 5 -19 10 -25 10 -5
0 -3 -5 5 -10z"/>
<path d="M2289 1012 c6 -12 16 -24 22 -28 8 -4 8 -1 0 14 -6 12 -16 24 -22 28
-8 4 -8 1 0 -14z"/>
<path d="M2045 970 c-3 -5 -1 -10 4 -10 6 0 11 5 11 10 0 6 -2 10 -4 10 -3 0
-8 -4 -11 -10z"/>
<path d="M2329 955 c5 -11 17 -29 26 -40 l16 -20 -10 20 c-5 11 -17 29 -26 40
l-16 20 10 -20z"/>
<path d="M2585 940 c3 -5 15 -10 25 -10 13 0 17 -5 14 -15 -4 -10 0 -15 14
-15 30 0 32 23 4 37 -29 15 -66 17 -57 3z"/>
</g>
</svg>
